<?xml version="1.0" encoding="UTF-8"?>
<svg width="72px" height="72px" version="1.1" viewBox="0 0 100 100" xmlns="http://www.w3.org/2000/svg">
 <path d="m5 0h90c2.7617 0 5 2.7617 5 5v90c0 2.7617-2.2383 5-5 5h-90c-2.7617 0-5-2.7617-5-5v-90c0-2.7617 2.2383-5 5-5z" fill="#12b0fb"/>
 <path d="m79.852 69.02c-0.1875-0.75391-0.94531-1.1953-1.6992-1.2578-1.8281-0.0625-3.4023-1.0078-4.4102-2.6445l-1.1328-1.7617c-0.31641-0.50391-0.82031-0.75391-1.3867-0.75391-0.50391 0-0.94531 0.1875-1.2578 0.56641-10.578 11.84-11.398-7.1797-4.7852-2.7695 0.25 0.1875 0.62891-0.0625 0.56641-0.37891-0.31641-1.4492-1.4492-3.2109-4.1562-3.2109-3.4648 0-4.5352 2.3945-5.3516 4.4727-0.0625 0.125-0.125 0.31641-0.1875 0.44141-0.69141 1.8906-2.0156 3.5273-3.7773 4.5977-6.9922 4.0938-6.8633-9.8242-1.1328-5.918 0.25 0.1875 0.62891-0.0625 0.56641-0.37891-0.31641-1.4492-1.4492-3.2109-4.1562-3.2109-3.4648 0-4.5352 2.3945-5.3516 4.4727-0.0625 0.1875-0.125 0.37891-0.1875 0.50391-0.62891 1.5742-1.5742 3.0234-2.9609 4.0312-7.8086 5.668-7.8711-9.4453-1.9531-5.4141 0.25 0.1875 0.62891-0.0625 0.56641-0.37891-0.31641-1.4492-1.4492-3.2109-4.1562-3.2109-3.4648 0-4.5352 2.3945-5.3516 4.4727-0.56641 1.5117-0.75391 2.2656-1.5742 3.8398-0.88281 1.5742-2.832 2.707-4.7227 2.6445-1.1328-0.0625-2.0156 1.0078-1.6367 2.2656 0.25 0.69141 0.88281 1.0703 1.5742 1.0703 2.8984 0.0625 5.543-1.3242 7.2422-3.7148 1.6367 2.332 4.2188 3.7148 7.0547 3.7148 2.7695 0 5.3516-1.3867 7.0547-3.7148 1.6367 2.332 4.2188 3.7148 7.0547 3.7148 2.7695 0 5.3516-1.3867 7.0547-3.7148 1.6367 2.332 4.2188 3.7148 7.0547 3.7148 2.7695 0 5.3516-1.3867 7.0547-3.7148 1.6367 2.332 4.2188 3.7148 6.9922 3.7148 0.92578-0.011719 1.8047-1.0195 1.4922-2.0898z" fill="#fff"/>
 <path d="m32.242 42.191c0.56641 0.1875 1.2578-0.25 1.8281-0.62891 0.125-0.0625 0.1875-0.125 0.31641-0.1875 0.56641-0.37891 1.2578-0.56641 1.9531-0.56641 0.88281 0 1.7617 0.56641 2.2656 1.3867 1.0078 1.8281 2.3945 2.1406 3.1484 2.1406s2.0781-0.25 3.1484-2.1406c0.44141-0.82031 1.3242-1.3867 2.2656-1.3867h0.125c0.69141 0 1.3867 0.1875 1.9531 0.56641 0.0625 0.0625 0.1875 0.125 0.31641 0.1875 0.56641 0.37891 1.1953 0.82031 1.8281 0.62891 0.31641-0.125 0.56641-0.37891 0.69141-0.82031 0.25-0.82031-0.125-1.6992-0.82031-2.2031-1.1328-0.75391-2.5195-1.1328-3.8398-1.1328-2.0781 0-4.0312 0.88281-5.4141 2.457-1.3867-1.5742-3.3359-2.457-5.4141-2.457-1.3867 0-2.707 0.37891-3.8398 1.1328-0.75391 0.44141-1.0703 1.3867-0.82031 2.2031-0.26172 0.37891-0.007813 0.69531 0.30859 0.82031z" fill="#fff"/>
 <path d="m49.684 32.996c0.56641 0.1875 1.2578-0.25 1.8281-0.62891 0.125-0.0625 0.1875-0.125 0.31641-0.1875 0.56641-0.37891 1.2578-0.56641 1.9531-0.56641 0.88281 0 1.7617 0.56641 2.2656 1.3867 1.0078 1.8281 2.3945 2.1406 3.1484 2.1406 0.75391 0 2.0781-0.25 3.1484-2.1406 0.44141-0.82031 1.3242-1.3867 2.2656-1.3867h0.125c0.69141 0 1.3867 0.1875 1.9531 0.56641 0.0625 0.0625 0.1875 0.125 0.31641 0.1875 0.56641 0.37891 1.1953 0.82031 1.8281 0.62891 0.31641-0.125 0.56641-0.37891 0.69141-0.82031 0.25-0.82031-0.125-1.6992-0.82031-2.2031-1.1328-0.75391-2.5195-1.1328-3.8398-1.1328-2.0781 0-4.0312 0.88281-5.4141 2.457-1.3867-1.5742-3.3359-2.457-5.4141-2.457-1.3867 0-2.707 0.37891-3.8398 1.1328-0.75391 0.44141-1.0703 1.3867-0.82031 2.2031-0.19531 0.44141-0.003906 0.75781 0.30859 0.82031z" fill="#fff"/>
</svg>
